<svg version="1.1"
	 xmlns="http://www.w3.org/2000/svg" xmlns:xlink="http://www.w3.org/1999/xlink" xmlns:a="http://ns.adobe.com/AdobeSVGViewerExtensions/3.0/"
	 x="0px" y="0px" width="141px" height="180px" viewBox="1.4 -6.2 47 60" overflow="visible" enable-background="new 1.4 -6.2 47 60"
	 xml:space="preserve">
<defs>
</defs>
<path fill="#F5CC00" stroke="#020202" stroke-width="0.436" stroke-miterlimit="10" d="M40.2,24.5c0,0,6.6,1.7,7.3-3.7
	c0.4-3.3-2.3-5.9-5.7-5.4v3l2.4,1.7l0.6,1.4l-1.1,1.7L40.2,24.5z"/>
<g>
	<defs>
		<polygon id="XMLID_4_" points="23.2,28.4 5,40.8 1.7,54.2 5.2,54.2 47.5,54.2 47.5,35.5 42.5,27 32.5,22.4 		"/>
	</defs>
	<use xlink:href="#XMLID_4_"  overflow="visible" fill="#AE2A20"/>
	<clipPath id="XMLID_9_">
		<use xlink:href="#XMLID_4_"  overflow="visible"/>
	</clipPath>
	<g clip-path="url(#XMLID_9_)">
		<defs>
			<polygon id="XMLID_7_" points="39,27 18.4,40.7 20.8,21.5 36.3,18.9 40.8,20.8 			"/>
		</defs>
		<use xlink:href="#XMLID_7_"  overflow="visible" fill="#FFFFFF"/>
		<clipPath id="XMLID_10_">
			<use xlink:href="#XMLID_7_"  overflow="visible"/>
		</clipPath>
		<g clip-path="url(#XMLID_10_)">
			<defs>
				<path id="XMLID_8_" d="M36.3,26.6l-15.4,10l0.8-8c0,0-1.2-1.8-0.3-4.5L34,21.6L36.3,26.6z"/>
			</defs>
			<use xlink:href="#XMLID_8_"  overflow="visible" fill="#F5CC00"/>
			<clipPath id="XMLID_11_">
				<use xlink:href="#XMLID_8_"  overflow="visible"/>
			</clipPath>
			<polygon clip-path="url(#XMLID_11_)" stroke="#020202" stroke-width="0.5509" stroke-miterlimit="10" points="35.7,24.9 23,33.3
				24.4,18.4 34.1,19.2 			"/>
			<use xlink:href="#XMLID_8_"  overflow="visible" fill="none" stroke="#020202" stroke-width="0.5509" stroke-miterlimit="10"/>
		</g>
		<use xlink:href="#XMLID_7_"  overflow="visible" fill="none" stroke="#000000" stroke-width="0.5509" stroke-miterlimit="10"/>
	</g>
	<g clip-path="url(#XMLID_9_)">
		<defs>
			<polygon id="XMLID_6_" points="7.6,56.4 46.2,27.6 50.9,35.3 17.9,60.4 			"/>
		</defs>
		<use xlink:href="#XMLID_6_"  overflow="visible" fill="#F5CC00"/>
		<clipPath id="XMLID_12_">
			<use xlink:href="#XMLID_6_"  overflow="visible"/>
		</clipPath>
		<polygon clip-path="url(#XMLID_12_)" fill="#AE2A20" stroke="#000000" stroke-width="0.579" stroke-miterlimit="10" points="
			14,61.3 52.8,31.7 49.5,27.4 3.6,61.5 		"/>
		<use xlink:href="#XMLID_6_"  overflow="visible" fill="none" stroke="#020202" stroke-width="0.5509" stroke-miterlimit="10"/>
	</g>
	<g clip-path="url(#XMLID_9_)">
		<defs>
			<polygon id="XMLID_5_" points="12.7,31.3 8.9,56.6 14.2,56.6 18.2,29.2 			"/>
		</defs>
		<use xlink:href="#XMLID_5_"  overflow="visible" fill="#FFFFFF"/>
		<clipPath id="XMLID_13_">
			<use xlink:href="#XMLID_5_"  overflow="visible"/>
		</clipPath>
		<polygon clip-path="url(#XMLID_13_)" fill="#F5CC00" stroke="#020202" stroke-width="0.5509" stroke-miterlimit="10" points="
			14.8,29.8 10.6,56.2 16.4,56.2 20.8,27.7 		"/>
		<polygon clip-path="url(#XMLID_13_)" fill="#FFFFFF" stroke="#000000" stroke-width="0.5509" stroke-miterlimit="10" points="
			16.4,29.8 12.2,56.2 18.1,56.2 22.4,27.7 		"/>
		<use xlink:href="#XMLID_5_"  overflow="visible" fill="none" stroke="#000000" stroke-width="0.5509" stroke-miterlimit="10"/>
	</g>
	<use xlink:href="#XMLID_4_"  overflow="visible" fill="none" stroke="#000000" stroke-width="0.579" stroke-miterlimit="10"/>
</g>
<path fill="#FFFFFF" stroke="#000000" stroke-width="0.5509" stroke-miterlimit="10" d="M20.4,9.6c0,0,0,4.3,0,5l-2.5,6.3h2.7v7.4
	c0,0,10.9,2.6,14.2-5.8V7.2C34.8,7.2,23.1,7.5,20.4,9.6z"/>
<g>
	<defs>
		<path id="XMLID_3_" d="M42.5,11.1c0,0-1.9,3.6,1.1,7.2l0.7,6.4l-5.6,2.1l-9.6-5.7L27.7,9.4l9.5,0.2L42.5,11.1z"/>
	</defs>
	<use xlink:href="#XMLID_3_"  overflow="visible" fill="#F5CC00"/>
	<clipPath id="XMLID_14_">
		<use xlink:href="#XMLID_3_"  overflow="visible"/>
	</clipPath>
	<path clip-path="url(#XMLID_14_)" fill="#F5CC00" stroke="#020202" stroke-width="0.5425" stroke-miterlimit="10" d="M31.4,7.8
		c-0.2,4.4-2,15.9,15.3,17.7c0,0-1-4.6-0.2-3.4c0.3,0.6-13.7,0.9-12.4-12.9C34.1,9.2,31.8,0.3,31.4,7.8z"/>
	<path clip-path="url(#XMLID_14_)" fill="#F5CC00" stroke="#020202" stroke-width="0.4976" stroke-miterlimit="10" d="M33.9,7
		c0,5.3-1.5,14.3,13.1,16.2c0,0-0.7-4.2,0-3c0.2,0.4-11.5,1.5-10.4-11.2C36.6,9.1,33.9-0.1,33.9,7z"/>
	<path clip-path="url(#XMLID_14_)" fill="#F5CC00" stroke="#020202" stroke-width="0.4976" stroke-miterlimit="10" d="M39.9,9.1
		c0,0-2.6,10,6.8,9"/>
	<use xlink:href="#XMLID_3_"  overflow="visible" fill="none" stroke="#020202" stroke-width="0.4976" stroke-miterlimit="10"/>
</g>
<ellipse fill="#171717" cx="23.1" cy="16" rx="0.7" ry="0.7"/>
<path fill="#171717" d="M20.6,23.3c1.5-0.3,3.5,0,3.5,0c2.4,0.3,3.2-0.9,3.2-0.9s-0.6,0.5-3.2,0c-2.6-0.5-3.5-0.4-3.5-0.4V23.3z"/>
<line fill="none" stroke="#000000" stroke-width="0.5509" stroke-miterlimit="10" x1="19.8" y1="20.9" x2="21.9" y2="20.9"/>
<g>
	<defs>
		<path id="XMLID_2_" d="M1.4,40.6h7c0,0,1.8,9.2-7,13.6V40.6z"/>
	</defs>
	<use xlink:href="#XMLID_2_"  overflow="visible" fill="#FFFFFF"/>
	<clipPath id="XMLID_16_">
		<use xlink:href="#XMLID_2_"  overflow="visible"/>
	</clipPath>
	<polyline clip-path="url(#XMLID_16_)" fill="#FFFFFF" stroke="#000000" stroke-width="0.6693" stroke-miterlimit="10" points="
		0.1,43.6 8.7,43.6 8.7,47.1 0.4,47.1 0.7,50.8 7.7,50.8 6.6,53.8 0.1,53.8 	"/>
	<use xlink:href="#XMLID_2_"  overflow="visible" fill="none" stroke="#000000" stroke-width="0.5509" stroke-miterlimit="10"/>
</g>
<line fill="none" stroke="#000000" stroke-width="0.5402" stroke-miterlimit="10" x1="22.9" y1="24.3" x2="20.9" y2="24.3"/>
<path fill="#F5CC00" stroke="#020202" stroke-width="0.436" stroke-miterlimit="10" d="M38.9,26.5c0,0,6.8,1.7,7.6-3.7
	c0.5-3.3-2.3-5.9-5.7-5.4v3l2.4,1.7l0.6,1.4l-1.1,1.7L38.9,26.5z"/>
<path fill="#F5CC00" stroke="#020202" stroke-width="0.5509" stroke-miterlimit="10" d="M26,9.4c0,0-2,14.8,11.6,18.3
	c1.6,0.4,6.6,0.7,7-4c0.3-3.1-3-5-5.5-4.5l0.1,2.5c0,0,2.7-0.4,2.6,2c0,0-0.3,2.1-3.3,1.5c0,0-11.2-1.8-10.1-15.9L26,9.4z"/>
<path fill="#020202" stroke="#000000" stroke-width="0.5509" stroke-miterlimit="10" d="M15.5,2.7l4.7,8.7c0,0,13.2-3.6,22.3-0.1
	l3.3-8.8C45.7,2.6,32-2.7,15.5,2.7z"/>
<g>
	<defs>
		<path id="XMLID_1_" d="M15.9,3l3.2,6.6c0,0,13.2-2.9,24,0l2.4-6.4C45.5,3.1,31.7-2.1,15.9,3z"/>
	</defs>
	<use xlink:href="#XMLID_1_"  overflow="visible" fill="#AE2A20"/>
	<clipPath id="XMLID_17_">
		<use xlink:href="#XMLID_1_"  overflow="visible"/>
	</clipPath>
	<use xlink:href="#XMLID_1_"  overflow="visible" fill="none" stroke="#000000" stroke-width="0.5509" stroke-miterlimit="10"/>
</g>
<path fill="#AE2A20" stroke="#000000" stroke-width="0.5509" stroke-miterlimit="10" d="M18.5,4l1.8,3.6c0,0,2.4-0.6,5.3-0.9
	l-0.4-3.8"/>
<path fill="#AE2A20" stroke="#000000" stroke-width="0.5509" stroke-miterlimit="10" d="M43.2,3.7l-1.3,3.5c0,0-3.2-0.4-6.1-0.6
	l0.1-3.8"/>
<polyline fill="#AE2A20" stroke="#000000" stroke-width="0.5509" stroke-miterlimit="10" points="27.4,2.9 27.7,6.5 33.7,6.5
	33.7,2.7 "/>
<polygon stroke="#020202" stroke-width="0.5509" stroke-miterlimit="10" points="18.8,52.7 22,52.7 25.1,50.5 21.9,50.5 "/>
<polygon stroke="#020202" stroke-width="0.5509" stroke-miterlimit="10" points="23.7,48.8 26.9,48.8 30,46.6 26.8,46.6 "/>
<polygon stroke="#020202" stroke-width="0.5509" stroke-miterlimit="10" points="28.9,45.1 32.1,45.1 35.2,42.9 32,42.9 "/>
<polygon stroke="#020202" stroke-width="0.5509" stroke-miterlimit="10" points="33.8,41.5 37,41.5 40.1,39.2 36.9,39.2 "/>
<polygon stroke="#020202" stroke-width="0.5509" stroke-miterlimit="10" points="38.8,37.7 41.7,37.7 44.6,35.8 43.6,34.1 "/>
<polygon stroke="#020202" stroke-width="0.4883" stroke-miterlimit="10" points="34.1,51.7 45.2,43.7 45.2,51.7 "/>
<polygon fill="#F5CC00" stroke="#020202" stroke-width="0.4713" stroke-miterlimit="10" points="37.9,50.3 43.8,46.2 43.8,50.3 "/>
<ellipse fill="#FFFFFF" stroke="#000000" stroke-width="0.3726" stroke-miterlimit="10" cx="38.8" cy="30" rx="0.8" ry="0.8"/>
<ellipse fill="#FFFFFF" stroke="#000000" stroke-width="0.3726" stroke-miterlimit="10" cx="35.3" cy="32.7" rx="0.8" ry="0.8"/>
<ellipse fill="#FFFFFF" stroke="#000000" stroke-width="0.3726" stroke-miterlimit="10" cx="31.7" cy="35.4" rx="0.8" ry="0.8"/>
<path fill="#FFFFFF" stroke="#000000" stroke-width="0.3726" stroke-miterlimit="10" d="M28.5,38.6c0,0.5-0.4,0.8-0.8,0.8
	c-0.5,0-0.8-0.4-0.8-0.8c0-0.5,0.4-0.8,0.8-0.8C28.1,37.8,28.5,38.2,28.5,38.6z"/>
<path fill="#FFFFFF" stroke="#000000" stroke-width="0.3726" stroke-miterlimit="10" d="M24.2,41.7c0,0.5-0.4,0.8-0.8,0.8
	c-0.5,0-0.8-0.4-0.8-0.8c0-0.4,0.4-0.8,0.8-0.8C23.8,40.9,24.2,41.2,24.2,41.7z"/>
<path fill="#FFFFFF" stroke="#000000" stroke-width="0.3726" stroke-miterlimit="10" d="M20.1,44.9c0,0.5-0.4,0.8-0.8,0.8
	c-0.5,0-0.8-0.4-0.8-0.8c0-0.5,0.4-0.8,0.8-0.8C19.7,44.1,20.1,44.4,20.1,44.9z"/>
<path stroke="#020202" stroke-width="0.4379" stroke-miterlimit="10" d="M7.1,27.8c0-0.8-0.9-1.4-2.1-1.4S3,27,3,27.8
	c0,0.1,0,12.6,0,12.6h4.2C7.1,31.5,7.1,31.5,7.1,27.8z"/>
<path fill="#FFFFFF" d="M5.6,27.6c0-0.2-0.2-0.4-0.5-0.4c-0.3,0-0.5,0.2-0.5,0.4c0,0,0,11.9,0,11.9h1.1C5.6,37.2,5.6,28.6,5.6,27.6z
	"/>
<rect x="4.5" y="22.9" stroke="#020202" stroke-width="0.5236" stroke-miterlimit="10" width="1.1" height="3.3"/>
<polygon stroke="#020202" stroke-width="0.5036" stroke-miterlimit="10" points="5.1,20.6 7,24.7 3.2,24.7 "/>
</svg>
