<svg version="1.1"
	 xmlns="http://www.w3.org/2000/svg" xmlns:xlink="http://www.w3.org/1999/xlink" xmlns:a="http://ns.adobe.com/AdobeSVGViewerExtensions/3.0/"
	 x="0px" y="0px" width="141px" height="180px" viewBox="1.3 -0.4 47 60" overflow="visible" enable-background="new 1.3 -0.4 47 60"
	 xml:space="preserve">
<defs>
</defs>
<path fill="#FFFFFF" stroke="#000000" stroke-width="0.6537" stroke-miterlimit="10" d="M39.3,31.3c0,0,6.6,1.5,7-4.1
	c0.3-3.5-2.5-6.1-5.9-5.3l0.1,3.2l2.5,1.7l0.6,1.4l-1,1.8L39.3,31.3z"/>
<g>
	<defs>
		<polygon id="XMLID_4_" points="23.2,34.2 5,46.6 1.7,60 5.2,60 47.5,60 47.5,41.3 42.5,32.8 32.5,28.2 		"/>
	</defs>
	<use xlink:href="#XMLID_4_"  overflow="visible" fill="#B32825"/>
	<clipPath id="XMLID_8_">
		<use xlink:href="#XMLID_4_"  overflow="visible"/>
	</clipPath>
	<g clip-path="url(#XMLID_8_)">
		<defs>
			<polygon id="XMLID_7_" points="38.9,32.8 18.4,46.5 20.8,27.3 36.3,24.7 40.8,26.6 			"/>
		</defs>
		<use xlink:href="#XMLID_7_"  overflow="visible" fill="#F7CC10"/>
		<clipPath id="XMLID_9_">
			<use xlink:href="#XMLID_7_"  overflow="visible"/>
		</clipPath>
		<g clip-path="url(#XMLID_9_)">
			<polygon fill="#B32825" stroke="#000000" stroke-width="0.5788" stroke-miterlimit="10" points="35.7,30.7 23,39.1 24.4,24.2
				34.1,25 			"/>
		</g>
		<use xlink:href="#XMLID_7_"  overflow="visible" fill="none" stroke="#020202" stroke-width="0.4345" stroke-miterlimit="10"/>
	</g>
	<g clip-path="url(#XMLID_8_)">
		<defs>
			<polygon id="XMLID_6_" points="7.6,62.2 46.2,33.4 50.9,41.1 17.9,66.2 			"/>
		</defs>
		<use xlink:href="#XMLID_6_"  overflow="visible" fill="#F7CC10"/>
		<clipPath id="XMLID_10_">
			<use xlink:href="#XMLID_6_"  overflow="visible"/>
		</clipPath>
		<polygon clip-path="url(#XMLID_10_)" fill="#B32825" stroke="#000000" stroke-width="0.5788" stroke-miterlimit="10" points="
			14,67.1 52.8,37.5 49.5,33.2 3.6,67.3 		"/>
		<use xlink:href="#XMLID_6_"  overflow="visible" fill="none" stroke="#020202" stroke-width="0.5508" stroke-miterlimit="10"/>
	</g>
	<g clip-path="url(#XMLID_8_)">
		<defs>
			<polygon id="XMLID_5_" points="12.7,37.1 8.9,62.4 14.2,62.4 18.2,35 			"/>
		</defs>
		<use xlink:href="#XMLID_5_"  overflow="visible" fill="#FFFFFF"/>
		<clipPath id="XMLID_11_">
			<use xlink:href="#XMLID_5_"  overflow="visible"/>
		</clipPath>
		<polygon clip-path="url(#XMLID_11_)" fill="#B32825" stroke="#000000" stroke-width="0.5788" stroke-miterlimit="10" points="
			14.8,35.7 10.6,62 16.4,62 20.8,33.5 		"/>
		<polygon clip-path="url(#XMLID_11_)" fill="#FFFFFF" stroke="#000000" stroke-width="0.5508" stroke-miterlimit="10" points="
			16.4,35.7 12.2,62 18.1,62 22.4,33.5 		"/>
		<use xlink:href="#XMLID_5_"  overflow="visible" fill="none" stroke="#000000" stroke-width="0.5508" stroke-miterlimit="10"/>
	</g>
	<use xlink:href="#XMLID_4_"  overflow="visible" fill="none" stroke="#000000" stroke-width="0.5788" stroke-miterlimit="10"/>
</g>
<path fill="#FFFFFF" stroke="#000000" stroke-width="0.5508" stroke-miterlimit="10" d="M20.4,15.4c0,0,0,3.1,0,3.8l-2.5,7.5h2.7
	v7.4c0,0,10.9,2.6,14.2-5.8V13C34.8,13,23.1,13.3,20.4,15.4z"/>
<g>
	<defs>
		<path id="XMLID_3_" d="M42.5,16.9c0,0-1.9,3.6,1.1,7.2l0.7,6.4l-5.6,2.1l-9.6-5.7l-1.4-11.7l9.5,0.2L42.5,16.9z"/>
	</defs>
	<use xlink:href="#XMLID_3_"  overflow="visible" fill="#FFFFFF"/>
	<clipPath id="XMLID_12_">
		<use xlink:href="#XMLID_3_"  overflow="visible"/>
	</clipPath>
	<path clip-path="url(#XMLID_12_)" fill="#FFFFFF" stroke="#000000" stroke-width="0.6419" stroke-miterlimit="10" d="M31.4,13.6
		c-0.2,4.4-2,15.9,15.3,17.7c0,0-1-4.6-0.2-3.4c0.3,0.6-13.7,0.9-12.4-12.9C34.1,15,31.8,6.1,31.4,13.6z"/>
	<path clip-path="url(#XMLID_12_)" fill="#FFFFFF" stroke="#000000" stroke-width="0.6419" stroke-miterlimit="10" d="M33.9,12.8
		c0,5.3-1.5,14.3,13.1,16.2c0,0-0.7-4.2,0-3c0.2,0.4-11.5,1.5-10.3-11.2C36.6,14.9,33.9,5.7,33.9,12.8z"/>
	<path clip-path="url(#XMLID_12_)" fill="#FFFFFF" stroke="#000000" stroke-width="0.6419" stroke-miterlimit="10" d="M39.8,14.9
		c0,0-2.6,9.9,6.8,9"/>
	<use xlink:href="#XMLID_3_"  overflow="visible" fill="none" stroke="#000000" stroke-width="0.6419" stroke-miterlimit="10"/>
</g>
<ellipse fill="#171717" cx="23.1" cy="21.8" rx="0.7" ry="0.7"/>
<path fill="#171717" d="M20.5,28.6c1.5-0.1,3.7,0.7,3.7,0.7c0.8,0.6,0.2-1.9-3.3-2C20.4,27.5,20.5,28.6,20.5,28.6z"/>
<line fill="none" stroke="#000000" stroke-width="0.5508" stroke-miterlimit="10" x1="19.8" y1="26.7" x2="21.9" y2="26.7"/>
<g>
	<defs>
		<path id="XMLID_2_" d="M1.4,46.4h7c0,0,1.8,9.2-7,13.6V46.4z"/>
	</defs>
	<use xlink:href="#XMLID_2_"  overflow="visible" fill="#FFFFFF"/>
	<clipPath id="XMLID_13_">
		<use xlink:href="#XMLID_2_"  overflow="visible"/>
	</clipPath>
	<polyline clip-path="url(#XMLID_13_)" fill="#FFFFFF" stroke="#000000" stroke-width="0.6691" stroke-miterlimit="10" points="
		0.1,49.3 8.7,49.3 8.7,52.9 0.4,52.9 0.7,56.6 7.7,56.6 6.6,59.6 0.1,59.6 	"/>
	<use xlink:href="#XMLID_2_"  overflow="visible" fill="none" stroke="#000000" stroke-width="0.5508" stroke-miterlimit="10"/>
</g>
<line fill="none" stroke="#000000" stroke-width="0.5401" stroke-miterlimit="10" x1="22.9" y1="30.1" x2="20.9" y2="30.1"/>
<path fill="#FFFFFF" stroke="#000000" stroke-width="0.6419" stroke-miterlimit="10" d="M24.7,12c0,0-2.3,17.3,13.6,21.3
	c1.9,0.5,7.7,0.8,8.2-4.7c0.3-3.6-3.5-5.8-6.4-5.2l0.1,2.9c0,0,3.2-0.4,3.1,2.4c0,0-0.3,2.4-3.8,1.8c0,0-13-2.1-11.8-18.5L24.7,12z"
	/>
<path fill="#020202" stroke="#000000" stroke-width="0.5357" stroke-miterlimit="10" d="M17.2,9l3.1,8.6c0,0,10.6-2.8,22.3-0.3
	l2.1-7.8C44.6,9.6,33.5,3.9,17.2,9z"/>
<polygon fill="#FFFFFF" stroke="#000000" stroke-width="0.6419" stroke-miterlimit="10" points="18.8,58.5 22,58.5 25.1,56.3
	21.9,56.3 "/>
<polygon fill="#FFFFFF" stroke="#000000" stroke-width="0.6419" stroke-miterlimit="10" points="23.7,54.6 26.9,54.6 30,52.4
	26.8,52.4 "/>
<polygon fill="#FFFFFF" stroke="#000000" stroke-width="0.6419" stroke-miterlimit="10" points="28.9,50.9 32.1,50.9 35.2,48.7
	32,48.7 "/>
<polygon fill="#FFFFFF" stroke="#000000" stroke-width="0.6419" stroke-miterlimit="10" points="33.8,47.3 37,47.3 40.1,45 36.9,45
	"/>
<polygon fill="#FFFFFF" stroke="#000000" stroke-width="0.6419" stroke-miterlimit="10" points="38.8,43.5 41.7,43.5 44.6,41.6
	43.6,39.9 "/>
<polygon stroke="#020202" stroke-width="0.4882" stroke-miterlimit="10" points="34.1,57.5 45.2,49.5 45.2,57.5 "/>
<polygon fill="#F7CC10" stroke="#020202" stroke-width="0.4712" stroke-miterlimit="10" points="37.8,56.1 43.8,52 43.8,56.1 "/>
<ellipse fill="#FFFFFF" stroke="#000000" stroke-width="0.3725" stroke-miterlimit="10" cx="38.8" cy="35.8" rx="0.8" ry="0.8"/>
<ellipse fill="#FFFFFF" stroke="#000000" stroke-width="0.3725" stroke-miterlimit="10" cx="35.3" cy="38.5" rx="0.8" ry="0.8"/>
<path fill="#FFFFFF" stroke="#000000" stroke-width="0.3725" stroke-miterlimit="10" d="M32.5,41.2c0,0.4-0.4,0.8-0.8,0.8
	c-0.5,0-0.8-0.4-0.8-0.8c0-0.5,0.4-0.8,0.8-0.8C32.2,40.4,32.5,40.8,32.5,41.2z"/>
<ellipse fill="#FFFFFF" stroke="#000000" stroke-width="0.3725" stroke-miterlimit="10" cx="27.6" cy="44.4" rx="0.8" ry="0.8"/>
<ellipse fill="#FFFFFF" stroke="#000000" stroke-width="0.3725" stroke-miterlimit="10" cx="23.3" cy="47.5" rx="0.8" ry="0.8"/>
<path fill="#FFFFFF" stroke="#000000" stroke-width="0.3725" stroke-miterlimit="10" d="M20.1,50.7c0,0.5-0.4,0.8-0.8,0.8
	c-0.5,0-0.8-0.4-0.8-0.8c0-0.5,0.4-0.8,0.8-0.8C19.7,49.9,20.1,50.2,20.1,50.7z"/>
<g>
	<defs>
		<path id="XMLID_1_" d="M7,29.6l-1.8-4l-2,4c0,0-0.2,0.6-0.2,0.9c0,0.1,0,15.6,0,15.6h4.2c0-11.5,0-10.9,0-15.6
			C7.1,30.2,7,29.6,7,29.6z"/>
	</defs>
	<use xlink:href="#XMLID_1_"  overflow="visible"/>
	<clipPath id="XMLID_14_">
		<use xlink:href="#XMLID_1_"  overflow="visible"/>
	</clipPath>
	<path clip-path="url(#XMLID_14_)" fill="#FFFFFF" stroke="#020202" stroke-width="0.6096" stroke-miterlimit="10" d="M9.1,21.2
		l-1.8-5.9l-2,5.9c0,0-0.2,0.7-0.2,1c0-0.9,0,0.1,0,19.5h4.2c0-14.1,0-14.1,0-18.5C9.2,22.8,9.1,21.2,9.1,21.2z"/>
	<use xlink:href="#XMLID_1_"  overflow="visible" fill="none" stroke="#020202" stroke-width="0.5708" stroke-miterlimit="10"/>
</g>
<polygon fill="#171717" points="24.7,34.6 24.6,29.2 24.1,28.9 24.1,31.5 20.6,31.5 20.6,34.1 "/>
<path fill="#171717" d="M28.5,27.1c0,0,0.1,1.3-1.4,3.3c-1.6,2.2-2.6,2.1-2.6,2.1v1.7c0,0,5.1-0.4,5.9-4.8"/>
<path fill="#F7CC10" stroke="#020202" stroke-width="0.4345" stroke-miterlimit="10" d="M47.1,4c0-1-0.8-1.9-1.8-1.9
	c-1,0-1.9,0.8-1.9,1.8c0,0.5,0.2,1,0.5,1.3L42.4,8c-0.9-0.2-1.9-0.4-3-0.6l-0.2-2.9c0.7-0.3,1.1-1,1.1-1.8c-0.1-1-1-1.8-2-1.7
	c-1,0.1-1.8,1-1.7,2c0,0.5,0.3,1,0.6,1.3l-1.1,2.7c-1.1-0.1-2.2-0.2-3.5-0.3l-0.6-3c0.6-0.4,1-1.2,0.8-1.9c-0.2-1-1.2-1.6-2.2-1.4
	c-1,0.2-1.6,1.2-1.4,2.2c0.1,0.5,0.4,0.9,0.8,1.2l-0.7,3c-1,0-2.1,0.1-3.2,0.2L25,4c0.4-0.3,0.6-0.8,0.6-1.3c0.1-1-0.7-1.9-1.7-2
	c-1-0.1-1.9,0.7-2,1.7c-0.1,0.8,0.4,1.5,1.1,1.8l-0.2,2.9c-1.2,0.2-2.3,0.4-3.5,0.7l-1.5-2.7c0.3-0.3,0.5-0.8,0.5-1.3
	c-0.1-1-0.9-1.8-1.9-1.7c-1,0.1-1.8,0.9-1.7,1.9c0,0.8,0.6,1.4,1.3,1.7l3.5,9.7c0,0,12.9-2.9,23.8,0l2.7-9.6
	C46.5,5.5,47.1,4.8,47.1,4z"/>
<polygon stroke="#020202" stroke-width="0.3771" stroke-miterlimit="10" points="9.6,40.4 9.6,42 8.6,42 4.2,42 1.3,42 1.3,40.4
	4.2,40.4 8.6,40.4 "/>
<path fill="#F7CC10" stroke="#020202" stroke-width="0.4975" stroke-miterlimit="10" d="M19.1,9.8l1.4,3.6c0,0,2.3-0.6,5.1-0.9
	l-0.4-3.8"/>
<path fill="#F7CC10" stroke="#020202" stroke-width="0.4975" stroke-miterlimit="10" d="M42.5,9.4l-1,3.6c0,0-3.4-0.7-5.7-0.9
	l0.1-3.4"/>
<polyline fill="#F7CC10" stroke="#020202" stroke-width="0.4975" stroke-miterlimit="10" points="27.3,8.6 27.6,12.2 33.7,12.1
	33.6,8.5 "/>
</svg>
