<svg version="1.1"
	 xmlns="http://www.w3.org/2000/svg" xmlns:xlink="http://www.w3.org/1999/xlink" xmlns:a="http://ns.adobe.com/AdobeSVGViewerExtensions/3.0/"
	 x="0px" y="0px" width="141px" height="180px" viewBox="1.8 -5.5 47 60" overflow="visible" enable-background="new 1.8 -5.5 47 60"
	 xml:space="preserve">
<defs>
</defs>
<path fill="#B32825" stroke="#000000" stroke-width="0.5616" stroke-miterlimit="10" d="M23.7,6.5c0,0,3.9-3.1,10.4-1.6
	c0,0,7,1.2,7.3,10.2c0,0-0.8-2.4-3.1-1.7c-2.3,0.7-9.7-3.2-10.5-3.3C27,10.2,23.7,6.5,23.7,6.5z"/>
<path fill="#B32825" stroke="#000000" stroke-width="0.5779" stroke-miterlimit="10" d="M20.4,9.7c2,14.7-3.7,23.2-7.6,27.8L23.6,34
	l6.8-15.5l-3.1-4.2L20.4,9.7z"/>
<g>
	<defs>
		<polygon id="XMLID_5_" points="23.8,29.1 6,42.5 2.4,54.9 5.8,54.9 48.1,54.9 48.1,36.2 45.2,27 33.1,23.2 		"/>
	</defs>
	<use xlink:href="#XMLID_5_"  overflow="visible" fill="#B32825"/>
	<clipPath id="XMLID_10_">
		<use xlink:href="#XMLID_5_"  overflow="visible"/>
	</clipPath>
	<path clip-path="url(#XMLID_10_)" fill="#FFFFFF" stroke="#000000" stroke-width="0.718" stroke-miterlimit="10" d="M17.8,26.7
		c0,0,1.1,7,9.6,5.8C36,31.3,39.7,24.6,39,21.2c-0.6-3.5-7.7-4.3-7.7-4.3L17.8,26.7z"/>
	<g clip-path="url(#XMLID_10_)">
		<g>
			<line fill="#B32825" stroke="#000000" stroke-width="0.5779" stroke-miterlimit="10" x1="34.7" y1="20" x2="36.2" y2="25.7"/>
		</g>
	</g>
	<g clip-path="url(#XMLID_10_)">
		<defs>
			<polygon id="XMLID_8_" points="8.2,57.1 46.8,28.4 51.4,36 18.5,61.1 			"/>
		</defs>
		<use xlink:href="#XMLID_8_"  overflow="visible" fill="#F7CC10"/>
		<clipPath id="XMLID_11_">
			<use xlink:href="#XMLID_8_"  overflow="visible"/>
		</clipPath>
		<g clip-path="url(#XMLID_11_)">
			<defs>
				<polygon id="XMLID_9_" points="14.6,62 53.3,32.4 50.1,28.2 4.2,62.2 				"/>
			</defs>
			<use xlink:href="#XMLID_9_"  overflow="visible" fill="#B32825"/>
			<clipPath id="XMLID_12_">
				<use xlink:href="#XMLID_9_"  overflow="visible"/>
			</clipPath>

				<ellipse transform="matrix(0.7972 -0.6037 0.6037 0.7972 -28.927 22.8378)" clip-path="url(#XMLID_12_)" fill="#FFFFFF" stroke="#000000" stroke-width="0.4088" stroke-miterlimit="10" cx="19.5" cy="54.5" rx="1.5" ry="1.5"/>
			<path clip-path="url(#XMLID_12_)" fill="#FFFFFF" stroke="#000000" stroke-width="0.4088" stroke-miterlimit="10" d="M20,52.8
				c0.1-0.8,0.8-1.4,1.6-1.3c0.8,0.1,1.4,0.8,1.4,1.6c-0.1,0.8-0.8,1.4-1.6,1.3C20.6,54.4,20,53.6,20,52.8z"/>
			<path clip-path="url(#XMLID_12_)" fill="#FFFFFF" stroke="#000000" stroke-width="0.4088" stroke-miterlimit="10" d="M24.7,50.6
				c0.5,0.6,0.4,1.6-0.3,2.1c-0.7,0.5-1.6,0.4-2.1-0.3c-0.5-0.7-0.4-1.6,0.3-2.1C23.2,49.8,24.2,49.9,24.7,50.6z"/>
			<path clip-path="url(#XMLID_12_)" fill="#FFFFFF" stroke="#000000" stroke-width="0.4088" stroke-miterlimit="10" d="M24,49.8
				c0.1-0.8,0.8-1.4,1.6-1.3c0.8,0.1,1.4,0.8,1.4,1.6c-0.1,0.8-0.8,1.4-1.6,1.3C24.5,51.4,23.9,50.6,24,49.8z"/>
			<path clip-path="url(#XMLID_12_)" fill="#FFFFFF" stroke="#000000" stroke-width="0.4088" stroke-miterlimit="10" d="M28.6,47.6
				c0.5,0.6,0.4,1.6-0.3,2.1c-0.7,0.5-1.6,0.4-2.1-0.3c-0.5-0.6-0.4-1.6,0.3-2.1C27.2,46.8,28.1,46.9,28.6,47.6z"/>
			<path clip-path="url(#XMLID_12_)" fill="#FFFFFF" stroke="#000000" stroke-width="0.4088" stroke-miterlimit="10" d="M27.9,46.8
				c0.1-0.8,0.8-1.4,1.6-1.3c0.8,0.1,1.4,0.8,1.4,1.6c-0.1,0.8-0.8,1.4-1.6,1.3C28.5,48.4,27.9,47.6,27.9,46.8z"/>
			<path clip-path="url(#XMLID_12_)" fill="#FFFFFF" stroke="#000000" stroke-width="0.4088" stroke-miterlimit="10" d="M32.6,44.6
				c0.5,0.6,0.4,1.6-0.3,2.1c-0.7,0.5-1.6,0.4-2.1-0.3c-0.5-0.7-0.4-1.6,0.3-2.1C31.2,43.8,32.1,43.9,32.6,44.6z"/>

				<ellipse transform="matrix(-0.9964 -8.463489e-02 8.463489e-02 -0.9964 62.911 90.6026)" clip-path="url(#XMLID_12_)" fill="#FFFFFF" stroke="#000000" stroke-width="0.4088" stroke-miterlimit="10" cx="33.4" cy="44" rx="1.5" ry="1.5"/>

				<ellipse transform="matrix(0.7969 -0.6042 0.6042 0.7969 -18.5213 29.9556)" clip-path="url(#XMLID_12_)" fill="#FFFFFF" stroke="#000000" stroke-width="0.4088" stroke-miterlimit="10" cx="35.3" cy="42.5" rx="1.5" ry="1.5"/>
			<path clip-path="url(#XMLID_12_)" fill="#FFFFFF" stroke="#000000" stroke-width="0.4088" stroke-miterlimit="10" d="M35.8,40.9
				c0.1-0.8,0.8-1.4,1.6-1.3c0.8,0.1,1.4,0.8,1.4,1.6c-0.1,0.8-0.8,1.4-1.6,1.3C36.3,42.4,35.7,41.7,35.8,40.9z"/>
			<path clip-path="url(#XMLID_12_)" fill="#FFFFFF" stroke="#000000" stroke-width="0.4088" stroke-miterlimit="10" d="M40.4,38.6
				c0.5,0.6,0.4,1.6-0.3,2.1c-0.7,0.5-1.6,0.4-2.1-0.3c-0.5-0.6-0.4-1.6,0.3-2.1C39,37.9,39.9,38,40.4,38.6z"/>
			<path clip-path="url(#XMLID_12_)" fill="#FFFFFF" stroke="#000000" stroke-width="0.4088" stroke-miterlimit="10" d="M39.7,37.9
				c0.1-0.8,0.8-1.4,1.6-1.3c0.8,0.1,1.4,0.8,1.4,1.6c-0.1,0.8-0.8,1.4-1.6,1.3C40.3,39.4,39.7,38.7,39.7,37.9z"/>
			<path clip-path="url(#XMLID_12_)" fill="#FFFFFF" stroke="#000000" stroke-width="0.4088" stroke-miterlimit="10" d="M44.4,35.6
				c0.5,0.6,0.4,1.6-0.3,2.1c-0.7,0.5-1.6,0.4-2.1-0.3c-0.5-0.6-0.4-1.6,0.3-2.1C43,34.9,43.9,35,44.4,35.6z"/>
			<path clip-path="url(#XMLID_12_)" fill="#FFFFFF" stroke="#000000" stroke-width="0.4088" stroke-miterlimit="10" d="M43.7,34.9
				c0.1-0.8,0.8-1.4,1.6-1.3c0.8,0.1,1.4,0.8,1.4,1.6c-0.1,0.8-0.8,1.4-1.6,1.3C44.2,36.4,43.6,35.7,43.7,34.9z"/>
			<path clip-path="url(#XMLID_12_)" fill="#FFFFFF" stroke="#000000" stroke-width="0.4088" stroke-miterlimit="10" d="M48.3,32.6
				c0.5,0.6,0.4,1.6-0.3,2.1c-0.7,0.5-1.6,0.4-2.1-0.3c-0.5-0.7-0.4-1.6,0.3-2.1C46.9,31.9,47.8,32,48.3,32.6z"/>
			<path clip-path="url(#XMLID_12_)" fill="#FFFFFF" stroke="#000000" stroke-width="0.4088" stroke-miterlimit="10" d="M47.6,31.9
				c0.1-0.8,0.8-1.4,1.6-1.3c0.8,0.1,1.4,0.8,1.4,1.6c-0.1,0.8-0.8,1.4-1.6,1.3C48.2,33.4,47.6,32.7,47.6,31.9z"/>
			<use xlink:href="#XMLID_9_"  overflow="visible" fill="none" stroke="#000000" stroke-width="0.5779" stroke-miterlimit="10"/>
		</g>
		<use xlink:href="#XMLID_8_"  overflow="visible" fill="none" stroke="#020202" stroke-width="0.5499" stroke-miterlimit="10"/>
	</g>
	<path clip-path="url(#XMLID_10_)" fill="#B32825" stroke="#000000" stroke-width="0.5616" stroke-miterlimit="10" d="M19.7,26.7
		c0,0,1.1,5,8.1,3.9c7-1.1,10.8-7.6,10.2-10c-0.6-2.5-7.4-1.2-7.4-1.2L19.7,26.7z"/>
	<g clip-path="url(#XMLID_10_)">
		<defs>
			<polygon id="XMLID_7_" points="13.4,32 9.2,58.4 14.2,58.4 18.8,30 			"/>
		</defs>
		<use xlink:href="#XMLID_7_"  overflow="visible" fill="#FFFFFF"/>
		<clipPath id="XMLID_13_">
			<use xlink:href="#XMLID_7_"  overflow="visible"/>
		</clipPath>
		<polygon clip-path="url(#XMLID_13_)" fill="#B32825" stroke="#000000" stroke-width="0.5779" stroke-miterlimit="10" points="
			15.4,30.6 11.2,56.9 17,56.9 21.4,28.4 		"/>
		<polygon clip-path="url(#XMLID_13_)" fill="#FFFFFF" stroke="#000000" stroke-width="0.5499" stroke-miterlimit="10" points="
			17,30.6 12.8,56.9 18.7,56.9 23,28.4 		"/>
		<use xlink:href="#XMLID_7_"  overflow="visible" fill="none" stroke="#000000" stroke-width="0.5499" stroke-miterlimit="10"/>
	</g>
	<g clip-path="url(#XMLID_10_)">
		<defs>
			<polygon id="XMLID_6_" points="50.3,40.5 29.2,56.8 32.8,60.2 55.7,42.7 			"/>
		</defs>
		<use xlink:href="#XMLID_6_"  overflow="visible" fill="#FFFFFF"/>
		<clipPath id="XMLID_14_">
			<use xlink:href="#XMLID_6_"  overflow="visible"/>
		</clipPath>
		<polygon clip-path="url(#XMLID_14_)" fill="#B32825" stroke="#000000" stroke-width="0.5779" stroke-miterlimit="10" points="
			52.8,40.9 31.6,57.1 35.9,61.1 58.6,43.4 		"/>
		<polygon clip-path="url(#XMLID_14_)" fill="#FFFFFF" stroke="#000000" stroke-width="0.5499" stroke-miterlimit="10" points="
			54,42 32.8,58.2 37.1,62.2 59.8,44.5 		"/>
		<use xlink:href="#XMLID_6_"  overflow="visible" fill="none" stroke="#000000" stroke-width="0.5499" stroke-miterlimit="10"/>
	</g>
	<use xlink:href="#XMLID_5_"  overflow="visible" fill="none" stroke="#000000" stroke-width="0.5616" stroke-miterlimit="10"/>
</g>
<path fill="#FFFFFF" stroke="#000000" stroke-width="0.5843" stroke-miterlimit="10" d="M5.6,28.4c0,0,1.5,0.1-0.5,6.6
	c-2,6.4,0,8.4,0,8.4l1.1,0.8c0,0-1.9-2.1,0-8.5c2.3-7.6-0.1-7.9-0.2-8.3"/>
<g>
	<defs>
		<path id="XMLID_4_" d="M21,11.6c0,0,1.2,3.1,1.2,3.8l-2.5,7.5h1.5v6.2c0,0,10.9,2.6,14.1-5.8V10.4C35.3,10.4,23.7,9.5,21,11.6z"/>
	</defs>
	<use xlink:href="#XMLID_4_"  overflow="visible" fill="#FFFFFF"/>
	<clipPath id="XMLID_15_">
		<use xlink:href="#XMLID_4_"  overflow="visible"/>
	</clipPath>
	<path clip-path="url(#XMLID_15_)" fill="#F7CC10" stroke="#020202" stroke-width="0.4366" stroke-miterlimit="10" d="M25.8,29.9
		c0,0,3.5-1.2,3.2-6.1c-0.3-4.9,6,0.4,6,0.4l-3,5.7l-5.5,1L25.8,29.9z"/>
	<use xlink:href="#XMLID_4_"  overflow="visible" fill="none" stroke="#000000" stroke-width="0.5499" stroke-miterlimit="10"/>
</g>
<g>
	<defs>
		<path id="XMLID_3_" d="M40.4,12.4c0,0-1.6,0.3,2,3.8L46.6,30L36.4,24l-11.7-5.3L23,7.9l11.6,2.6L40.4,12.4z"/>
	</defs>
	<use xlink:href="#XMLID_3_"  overflow="visible" fill="#B32825"/>
	<clipPath id="XMLID_16_">
		<use xlink:href="#XMLID_3_"  overflow="visible"/>
	</clipPath>
	<path clip-path="url(#XMLID_16_)" fill="#B32825" stroke="#000000" stroke-width="0.5616" stroke-miterlimit="10" d="M27.5,6.4
		c-0.3,4.1-2.4,14.9,18.6,16.5c0,0-1.2-4.3-0.3-3.1c0.4,0.5-16.7,0.8-15.1-12C30.8,7.7,28-0.6,27.5,6.4z"/>
	<path clip-path="url(#XMLID_16_)" fill="#B32825" stroke="#000000" stroke-width="0.5616" stroke-miterlimit="10" d="M30.6,5.7
		c0,5-1.8,13.3,15.9,15.1c0,0-0.8-3.9,0-2.8c0.3,0.4-14,1.4-12.6-10.4C33.9,7.6,30.6-1,30.6,5.7z"/>
	<path clip-path="url(#XMLID_16_)" fill="#B32825" stroke="#000000" stroke-width="0.5616" stroke-miterlimit="10" d="M37.8,7.6
		c0,0-3.1,9.3,8.3,8.4"/>
	<use xlink:href="#XMLID_3_"  overflow="visible" fill="none" stroke="#000000" stroke-width="0.5616" stroke-miterlimit="10"/>
</g>
<ellipse fill="#171717" cx="22.9" cy="19.2" rx="0.6" ry="0.6"/>
<line fill="none" stroke="#000000" stroke-width="0.5499" stroke-miterlimit="10" x1="20.4" y1="22.9" x2="22" y2="22.9"/>
<g>
	<defs>
		<path id="XMLID_2_" d="M2.1,42.9h6c0,0,0.3,9-6,12V42.9z"/>
	</defs>
	<use xlink:href="#XMLID_2_"  overflow="visible" fill="#FFFFFF"/>
	<clipPath id="XMLID_17_">
		<use xlink:href="#XMLID_2_"  overflow="visible"/>
	</clipPath>
	<polyline clip-path="url(#XMLID_17_)" fill="#FFFFFF" stroke="#000000" stroke-width="0.6476" stroke-miterlimit="10" points="
		0.1,45.6 8.7,45.6 8.7,48.9 0.4,48.9 0.7,52.4 7.7,52.4 6.6,55.2 0.1,55.2 	"/>
	<use xlink:href="#XMLID_2_"  overflow="visible" fill="none" stroke="#000000" stroke-width="0.5178" stroke-miterlimit="10"/>
</g>
<line fill="none" stroke="#000000" stroke-width="0.5392" stroke-miterlimit="10" x1="23.5" y1="25.1" x2="21.5" y2="25"/>
<path fill="#FFFFFF" stroke="#000000" stroke-width="0.6596" stroke-miterlimit="10" d="M20.3,7c0,0-1.5,15.4,16.6,18.6
	c7.5,1.3,9.8,5.3,11.2,10.5c0.1,0.4-1.2-7.3-3.4-10.1c-2.4-3.2-5.4-3-6.4-3.1c0,0-16-0.7-14.5-16.1L20.3,7z"/>
<g>
	<defs>
		<path id="XMLID_1_" d="M20.3,8.7c0,0,13.2,8.1,22.1,7.4l1.1-4.5c0,0-10-0.3-23.8-8.9L20.3,8.7z"/>
	</defs>
	<use xlink:href="#XMLID_1_"  overflow="visible" fill="#F7CC10"/>
	<clipPath id="XMLID_18_">
		<use xlink:href="#XMLID_1_"  overflow="visible"/>
	</clipPath>
	<path clip-path="url(#XMLID_18_)" fill="#F7CC10" stroke="#020202" stroke-width="0.4345" stroke-miterlimit="10" d="M20.3,7.6
		c0,0,13.7,8.5,24.8,7.6l-0.4-4.6c0,0-11.2-1.5-25-10.1L20.3,7.6z"/>
	<use xlink:href="#XMLID_1_"  overflow="visible" fill="none" stroke="#020202" stroke-width="0.4345" stroke-miterlimit="10"/>
</g>
<ellipse transform="matrix(0.1745 -0.9847 0.9847 0.1745 2.8086 61.35)" fill="#FFFFFF" stroke="#000000" stroke-width="0.4033" stroke-miterlimit="10" cx="38" cy="29" rx="0.8" ry="1"/>
<path fill="#FFFFFF" stroke="#000000" stroke-width="0.4033" stroke-miterlimit="10" d="M38.7,28.8c0.4-0.3,1-0.2,1.3,0.1
	c0.3,0.4,0.1,0.9-0.3,1.2c-0.4,0.3-1,0.2-1.3-0.1S38.3,29.1,38.7,28.8z"/>
<path fill="#FFFFFF" stroke="#000000" stroke-width="0.4033" stroke-miterlimit="10" d="M39.5,29.8c0.5,0,0.9,0.4,0.9,0.9
	c0,0.5-0.5,0.8-1,0.8c-0.5,0-0.9-0.4-0.9-0.9C38.5,30.2,39,29.8,39.5,29.8z"/>
<ellipse transform="matrix(-0.9671 -0.2544 0.2544 -0.9671 67.3294 71.7693)" fill="#FFFFFF" stroke="#000000" stroke-width="0.4033" stroke-miterlimit="10" cx="38.3" cy="31.5" rx="0.8" ry="1"/>
<ellipse transform="matrix(0.4761 0.8794 -0.8794 0.4761 46.6755 -16.4384)" fill="#FFFFFF" stroke="#000000" stroke-width="0.4033" stroke-miterlimit="10" cx="37.1" cy="31" rx="0.8" ry="1"/>
<path fill="#FFFFFF" stroke="#000000" stroke-width="0.4033" stroke-miterlimit="10" d="M37,30.7c-0.5-0.1-0.9-0.5-0.8-1
	c0.1-0.5,0.6-0.8,1.1-0.7c0.5,0.1,0.9,0.5,0.8,1C38,30.4,37.5,30.7,37,30.7z"/>
<ellipse fill="#FFFFFF" stroke="#000000" stroke-width="0.3719" stroke-miterlimit="10" cx="38.3" cy="30.3" rx="0.8" ry="0.8"/>
<path fill="#FFFFFF" stroke="#000000" stroke-width="0.4033" stroke-miterlimit="10" d="M32.4,32c0.5,0.1,0.9,0.5,0.8,1
	c-0.1,0.5-0.6,0.7-1.1,0.7c-0.5-0.1-0.9-0.5-0.8-1C31.3,32.2,31.8,31.9,32.4,32z"/>
<path fill="#FFFFFF" stroke="#000000" stroke-width="0.4033" stroke-miterlimit="10" d="M33,32.6c0.4-0.3,1-0.2,1.3,0.1
	s0.1,0.9-0.3,1.2c-0.4,0.3-1,0.2-1.3-0.1C32.4,33.5,32.5,32.9,33,32.6z"/>
<ellipse transform="matrix(4.158187e-02 -0.9991 0.9991 4.158187e-02 -2.1824 66.764)" fill="#FFFFFF" stroke="#000000" stroke-width="0.4033" stroke-miterlimit="10" cx="33.7" cy="34.5" rx="0.8" ry="1"/>
<path fill="#FFFFFF" stroke="#000000" stroke-width="0.4033" stroke-miterlimit="10" d="M31.7,35.2c0.1-0.5,0.6-0.8,1.1-0.7
	s0.7,0.6,0.6,1.1c-0.1,0.5-0.6,0.8-1.1,0.7C31.8,36.2,31.6,35.7,31.7,35.2z"/>
<path fill="#FFFFFF" stroke="#000000" stroke-width="0.4033" stroke-miterlimit="10" d="M31.8,35.5c-0.5,0.2-1,0.1-1.2-0.3
	c-0.2-0.4,0-0.9,0.4-1.2c0.5-0.3,1-0.1,1.2,0.3S32.2,35.3,31.8,35.5z"/>
<ellipse transform="matrix(-0.1541 0.9881 -0.9881 -0.1541 69.469 7.8985)" fill="#FFFFFF" stroke="#000000" stroke-width="0.4033" stroke-miterlimit="10" cx="31.4" cy="33.7" rx="0.8" ry="1"/>
<ellipse fill="#FFFFFF" stroke="#000000" stroke-width="0.3719" stroke-miterlimit="10" cx="32.5" cy="34.1" rx="0.8" ry="0.8"/>
<ellipse transform="matrix(0.1739 -0.9848 0.9848 0.1739 -15.1584 56.8328)" fill="#FFFFFF" stroke="#000000" stroke-width="0.4033" stroke-miterlimit="10" cx="26.3" cy="37.5" rx="0.8" ry="1"/>
<ellipse transform="matrix(-0.5732 -0.8194 0.8194 -0.5732 12.2576 82.1733)" fill="#FFFFFF" stroke="#000000" stroke-width="0.4033" stroke-miterlimit="10" cx="27.5" cy="37.9" rx="0.8" ry="1"/>
<path fill="#FFFFFF" stroke="#000000" stroke-width="0.4033" stroke-miterlimit="10" d="M27.8,38.3c0.5,0,0.9,0.4,0.9,0.9
	c0,0.5-0.5,0.8-1,0.8c-0.5,0-0.9-0.4-0.9-0.9C26.8,38.6,27.3,38.3,27.8,38.3z"/>
<path fill="#FFFFFF" stroke="#000000" stroke-width="0.4033" stroke-miterlimit="10" d="M25.8,39.8c0.1-0.5,0.6-0.8,1.1-0.7
	c0.4,0.1,0.7,0.6,0.6,1.1c-0.1,0.5-0.6,0.8-1.1,0.7C25.9,40.8,25.7,40.3,25.8,39.8z"/>
<ellipse transform="matrix(0.4756 0.8797 -0.8797 0.4756 48.0017 -1.7129)" fill="#FFFFFF" stroke="#000000" stroke-width="0.4033" stroke-miterlimit="10" cx="25.4" cy="39.4" rx="0.8" ry="1"/>
<ellipse transform="matrix(-0.1541 0.9881 -0.9881 -0.1541 67.1929 19.0619)" fill="#FFFFFF" stroke="#000000" stroke-width="0.4033" stroke-miterlimit="10" cx="25.4" cy="38.3" rx="0.8" ry="1"/>
<ellipse fill="#FFFFFF" stroke="#000000" stroke-width="0.3719" stroke-miterlimit="10" cx="26.6" cy="38.7" rx="0.8" ry="0.8"/>
<path fill="#FFFFFF" stroke="#000000" stroke-width="0.4033" stroke-miterlimit="10" d="M20.6,40.6c0.5,0.1,0.9,0.5,0.8,1
	c-0.1,0.5-0.6,0.7-1.1,0.7c-0.5-0.1-0.9-0.5-0.8-1C19.6,40.8,20.1,40.5,20.6,40.6z"/>
<ellipse transform="matrix(-0.5724 -0.8199 0.8199 -0.5724 -0.1767 83.6852)" fill="#FFFFFF" stroke="#000000" stroke-width="0.4033" stroke-miterlimit="10" cx="21.7" cy="41.9" rx="0.8" ry="1"/>
<path fill="#FFFFFF" stroke="#000000" stroke-width="0.4033" stroke-miterlimit="10" d="M22,42.3c0.5,0,0.9,0.4,0.9,0.9
	c0,0.5-0.5,0.8-1,0.8c-0.5,0-0.9-0.4-0.9-0.9C21,42.6,21.5,42.3,22,42.3z"/>
<path fill="#FFFFFF" stroke="#000000" stroke-width="0.4033" stroke-miterlimit="10" d="M20,43.8c0.1-0.5,0.6-0.8,1.1-0.7
	c0.4,0.1,0.7,0.6,0.6,1.1c-0.1,0.5-0.6,0.8-1,0.7C20.1,44.8,19.9,44.3,20,43.8z"/>
<path fill="#FFFFFF" stroke="#000000" stroke-width="0.4033" stroke-miterlimit="10" d="M20,44.1c-0.5,0.2-1,0.1-1.2-0.3
	c-0.2-0.4,0-0.9,0.4-1.2c0.5-0.3,1-0.1,1.2,0.3C20.7,43.3,20.5,43.9,20,44.1z"/>
<path fill="#FFFFFF" stroke="#000000" stroke-width="0.4033" stroke-miterlimit="10" d="M19.5,43.1c-0.5-0.1-0.9-0.5-0.8-1
	c0.1-0.5,0.6-0.8,1.1-0.7c0.5,0.1,0.9,0.5,0.8,1C20.5,42.9,20,43.2,19.5,43.1z"/>
<ellipse fill="#FFFFFF" stroke="#000000" stroke-width="0.3719" stroke-miterlimit="10" cx="20.8" cy="42.7" rx="0.8" ry="0.8"/>
<path fill="#F7CC10" stroke="#020202" stroke-width="0.4705" stroke-miterlimit="10" d="M22.2,2.8c0,0.8-0.6,1.4-1.4,1.4
	c-0.8,0-1.4-0.6-1.4-1.4c0-0.8,0.6-1.4,1.4-1.4C21.6,1.4,22.2,2,22.2,2.8z"/>
<circle fill="#F7CC10" stroke="#020202" stroke-width="0.3187" stroke-miterlimit="10" cx="22.4" cy="4.4" r="0.9"/>
<path fill="#F7CC10" stroke="#020202" stroke-width="0.3036" stroke-miterlimit="10" d="M24.5,5.3c0,0.5-0.4,0.9-0.9,0.9
	c-0.5,0-0.9-0.4-0.9-0.9c0-0.5,0.4-0.9,0.9-0.9C24.1,4.4,24.5,4.8,24.5,5.3z"/>
<circle fill="#F7CC10" stroke="#020202" stroke-width="0.3036" stroke-miterlimit="10" cx="25.2" cy="6.3" r="0.9"/>
<circle fill="#F7CC10" stroke="#020202" stroke-width="0.3036" stroke-miterlimit="10" cx="26.8" cy="7.1" r="0.9"/>
<circle fill="#F7CC10" stroke="#020202" stroke-width="0.3036" stroke-miterlimit="10" cx="28.4" cy="7.8" r="0.9"/>
<path fill="#F7CC10" stroke="#020202" stroke-width="0.4345" stroke-miterlimit="10" d="M6.7,23.1c0.9,0.2,1.4,0.9,1.3,1.6
	c-0.1,0.7-0.9,1.2-1.8,1.1c-0.9-0.2-1.4-0.9-1.3-1.6C5,23.4,5.8,22.9,6.7,23.1z"/>
<path fill="#F7CC10" stroke="#020202" stroke-width="0.4345" stroke-miterlimit="10" d="M7.7,24c0.7-0.5,1.6-0.4,2.1,0.2
	c0.4,0.6,0.2,1.5-0.5,2c-0.7,0.5-1.6,0.4-2.1-0.2C6.8,25.4,7,24.5,7.7,24z"/>
<path fill="#F7CC10" stroke="#020202" stroke-width="0.4345" stroke-miterlimit="10" d="M9,25.8c0.9,0,1.5,0.7,1.5,1.4
	c0,0.8-0.8,1.3-1.6,1.3c-0.9,0-1.6-0.7-1.5-1.4C7.4,26.3,8.1,25.7,9,25.8z"/>
<path fill="#F7CC10" stroke="#020202" stroke-width="0.4345" stroke-miterlimit="10" d="M5.7,28.2c0.2-0.8,1-1.4,1.7-1.2
	c0.7,0.2,1.1,1,0.9,1.9c-0.2,0.8-1,1.4-1.7,1.2C5.8,29.9,5.4,29,5.7,28.2z"/>
<path fill="#F7CC10" stroke="#020202" stroke-width="0.4345" stroke-miterlimit="10" d="M5.7,28.8c-0.8,0.4-1.7,0.2-2-0.5
	c-0.4-0.7,0-1.5,0.7-1.9c0.8-0.4,1.7-0.2,2,0.5C6.8,27.5,6.5,28.4,5.7,28.8z"/>
<path fill="#F7CC10" stroke="#020202" stroke-width="0.4345" stroke-miterlimit="10" d="M4.9,27.1C4,27,3.4,26.3,3.5,25.5
	c0.1-0.7,0.9-1.2,1.8-1.1c0.9,0.1,1.5,0.8,1.3,1.6C6.5,26.8,5.7,27.3,4.9,27.1z"/>
<ellipse fill="#FFFFFF" stroke="#000000" stroke-width="0.3719" stroke-miterlimit="10" cx="6.9" cy="26.5" rx="1.4" ry="1.3"/>
<path fill="#F7CC10" stroke="#020202" stroke-width="0.4345" stroke-miterlimit="10" d="M6.1,37.3c0,0,1-2.9,3.6-2.8
	C9.6,34.4,9.3,37.4,6.1,37.3L6.1,37.3z"/>
<path fill="#F7CC10" stroke="#020202" stroke-width="0.4345" stroke-miterlimit="10" d="M4.5,35.5c0,0-0.2-3.1-2.7-3.7
	C1.8,31.8,1.3,34.8,4.5,35.5L4.5,35.5z"/>
</svg>
